<svg xmlns="http://www.w3.org/2000/svg" xmlns:xlink="http://www.w3.org/1999/xlink" width="500" zoomAndPan="magnify" viewBox="0 0 375 374.999991" height="500" preserveAspectRatio="xMidYMid meet" version="1.0"><defs><g/></defs><rect x="-37.5" width="450" fill="#ffffff" y="-37.499999" height="449.999989" fill-opacity="1"/><rect x="-37.5" width="450" fill="#ffffff" y="-37.499999" height="449.999989" fill-opacity="1"/><rect x="-37.5" width="450" fill="#45b4a6" y="-37.499999" height="449.999989" fill-opacity="1"/><g fill="#202b2a" fill-opacity="1"><g transform="translate(5.419926, 275.999982)"><g><path d="M 19.152344 -10.46875 L 21.707031 -2.554688 L 29.113281 0.765625 L 34.21875 0 L 42.390625 0.765625 L 46.476562 0.253906 L 54.136719 0.253906 L 62.308594 -2.296875 L 64.609375 -9.703125 L 64.609375 -18.386719 L 65.117188 -22.984375 L 64.351562 -28.347656 L 64.863281 -44.6875 L 67.160156 -49.796875 L 72.011719 -52.605469 L 86.824219 -50.5625 L 91.933594 -46.222656 L 94.996094 -41.113281 L 97.039062 -36.515625 L 102.402344 -28.855469 L 107.253906 -19.664062 L 110.0625 -15.832031 L 112.105469 -10.726562 L 114.914062 -6.382812 L 120.535156 -1.789062 L 129.214844 0.511719 L 149.390625 0.253906 L 154.242188 0.765625 L 162.667969 0.511719 L 167.519531 -1.789062 L 169.054688 -7.40625 L 166.246094 -13.023438 L 163.179688 -16.597656 L 161.136719 -21.449219 L 152.453125 -34.476562 L 150.15625 -39.070312 L 141.984375 -52.351562 L 138.917969 -56.179688 L 138.664062 -62.308594 L 140.960938 -67.929688 L 144.539062 -71.757812 L 148.113281 -74.824219 L 158.074219 -92.699219 L 161.390625 -107.507812 L 160.882812 -123.597656 L 160.117188 -128.707031 L 155.519531 -143.261719 L 153.476562 -147.601562 L 150.667969 -151.6875 L 136.109375 -167.011719 L 127.171875 -171.863281 L 117.46875 -175.183594 L 102.914062 -178.5 L 94.742188 -178.757812 L 87.335938 -178.246094 L 72.011719 -178.246094 L 66.90625 -179.269531 L 61.800781 -179.269531 L 57.203125 -177.992188 L 52.09375 -177.992188 L 46.988281 -179.011719 L 41.371094 -179.269531 L 26.304688 -177.992188 L 21.707031 -175.4375 L 18.640625 -168.289062 L 18.898438 -109.808594 L 19.40625 -104.699219 L 18.640625 -94.484375 L 18.898438 -88.867188 L 18.898438 -83.761719 L 19.40625 -78.910156 L 18.898438 -74.054688 L 18.640625 -53.371094 L 19.152344 -48.265625 Z M 72.011719 -93.464844 L 66.90625 -96.273438 L 64.863281 -100.359375 L 64.863281 -115.679688 L 64.351562 -120.023438 L 64.863281 -130.75 L 67.160156 -135.601562 L 72.523438 -137.644531 L 77.632812 -137.386719 L 87.847656 -138.410156 L 94.996094 -136.878906 L 101.636719 -136.367188 L 106.488281 -135.089844 L 112.871094 -127.171875 L 114.40625 -123.085938 L 115.425781 -116.449219 L 114.660156 -108.785156 L 112.363281 -103.679688 L 109.550781 -99.847656 L 106.742188 -97.550781 L 102.148438 -95.507812 L 94.742188 -93.71875 L 89.890625 -93.464844 L 77.632812 -93.976562 Z M 72.011719 -93.464844 "/></g></g></g><g fill="#202b2a" fill-opacity="1"><g transform="translate(182.644652, 275.999982)"><g><path d="M 18.640625 -7.148438 L 21.707031 -2.296875 L 26.558594 0.511719 L 31.664062 0.253906 L 41.878906 0.765625 L 47.242188 0.253906 L 57.96875 0.511719 L 63.332031 -2.554688 L 65.375 -7.40625 L 65.886719 -12.257812 L 65.375 -17.875 L 65.375 -63.074219 L 67.671875 -68.4375 L 73.035156 -71.757812 L 103.167969 -72.011719 L 108.53125 -71.246094 L 113.128906 -71.246094 L 117.980469 -68.4375 L 120.535156 -63.585938 L 120.789062 -7.148438 L 123.597656 -3.0625 L 131.003906 0.253906 L 144.28125 0.253906 L 149.390625 -0.253906 L 159.859375 0.511719 L 164.710938 -2.808594 L 167.777344 -7.148438 L 167.265625 -30.390625 L 168.03125 -38.558594 L 167.265625 -42.644531 L 167.519531 -170.839844 L 165.222656 -176.203125 L 160.117188 -178.246094 L 130.75 -178.5 L 123.34375 -176.714844 L 120.789062 -170.585938 L 120.535156 -160.882812 L 121.042969 -156.539062 L 120.535156 -146.070312 L 121.300781 -141.21875 L 121.042969 -121.300781 L 118.234375 -116.191406 L 113.128906 -113.382812 L 108.277344 -114.148438 L 98.316406 -113.128906 L 92.953125 -113.636719 L 88.355469 -113.128906 L 73.289062 -113.382812 L 68.4375 -115.679688 L 65.886719 -120.535156 L 65.628906 -126.152344 L 65.628906 -131.515625 L 65.375 -136.109375 L 65.628906 -156.03125 L 66.140625 -161.648438 L 65.628906 -171.097656 L 63.332031 -175.949219 L 57.96875 -178.757812 L 52.351562 -178.246094 L 27.070312 -178.757812 L 21.449219 -176.203125 L 18.898438 -171.097656 L 18.386719 -165.476562 L 18.898438 -145.558594 L 18.386719 -140.453125 L 19.40625 -129.980469 L 18.898438 -120.277344 L 19.152344 -114.148438 L 18.640625 -109.042969 L 18.640625 -32.6875 L 19.40625 -28.089844 Z M 18.640625 -7.148438 "/></g></g></g></svg>