<svg version="1.1" xmlns="http://www.w3.org/2000/svg" viewBox="0 0 720 376.7057885351951" width="720" height="376.7057885351951" filter="invert(93%) hue-rotate(180deg)">
  <!-- svg-source:excalidraw -->
  
  <defs>
    <style class="style-fonts">
      @font-face {
        font-family: "Virgil";
        src: url("https://excalidraw.com/Virgil.woff2");
      }
      @font-face {
        font-family: "Cascadia";
        src: url("https://excalidraw.com/Cascadia.woff2");
      }
    </style>
    
  </defs>
  <g transform="translate(120.98995208740234 58) rotate(0 61.73997497558594 112.5)"><text x="61.73997497558594" y="0" font-family="Virgil, Segoe UI Emoji" font-size="36px" fill="#1e1e1e" text-anchor="middle" style="white-space: pre;" direction="ltr" dominant-baseline="text-before-edge">Hobbies</text><text x="61.73997497558594" y="45" font-family="Virgil, Segoe UI Emoji" font-size="36px" fill="#1e1e1e" text-anchor="middle" style="white-space: pre;" direction="ltr" dominant-baseline="text-before-edge"></text><text x="61.73997497558594" y="90" font-family="Virgil, Segoe UI Emoji" font-size="36px" fill="#1e1e1e" text-anchor="middle" style="white-space: pre;" direction="ltr" dominant-baseline="text-before-edge"></text><text x="61.73997497558594" y="135" font-family="Virgil, Segoe UI Emoji" font-size="36px" fill="#1e1e1e" text-anchor="middle" style="white-space: pre;" direction="ltr" dominant-baseline="text-before-edge"></text><text x="61.73997497558594" y="180" font-family="Virgil, Segoe UI Emoji" font-size="36px" fill="#1e1e1e" text-anchor="middle" style="white-space: pre;" direction="ltr" dominant-baseline="text-before-edge"></text></g><g stroke-linecap="round"><g transform="translate(275.53947987299307 52.00428820503811) rotate(24.9563370022316 -6.069500618509096 -18.10317096926903)"><path d="M1.84 1.33 C-0.25 -5.2, -9.19 -30.86, -11.51 -37.53 M-0.61 -0.42 C-3.2 -6.7, -11.67 -28.33, -13.98 -34.39" stroke="#289998" stroke-width="4" fill="none"></path></g></g><mask></mask><g stroke-linecap="round"><g transform="translate(388.0015721359425 79.96408714411768) rotate(24.9563370022316 -27.906967698037647 31.098271588049812)"><path d="M-2.05 1.88 C-11.04 12.56, -46.69 52.21, -55.39 61.77 M2.03 0.43 C-7.24 10.43, -48.22 47.02, -57.85 57.18" stroke="#289998" stroke-width="4" fill="none"></path></g></g><mask></mask><g stroke-linecap="round"><g transform="translate(419.02934578295867 230.23465812195957) rotate(24.9563370022316 -30.35566982626034 0.8954457678551648)"><path d="M-0.21 1 C-9.94 1.05, -48.75 3.06, -58.88 2.83 M-3.77 -0.93 C-13.72 -0.41, -50.58 -1.43, -60.5 -0.9" stroke="#289998" stroke-width="4" fill="none"></path></g></g><mask></mask><g stroke-linecap="round"><g transform="translate(410.6647037245925 243.18830266730208) rotate(24.9563370022316 -7.108379867704571 19.34134559635885)"><path d="M0.64 0.28 C-1.29 6.64, -10.7 34.63, -13.3 40.72 M-2.46 -2.04 C-4.48 4.75, -12.42 29.91, -14.85 36.72" stroke="#289998" stroke-width="4" fill="none"></path></g></g><mask></mask><g stroke-linecap="round"><g transform="translate(492.4555543934173 304.9309867594295) rotate(24.9563370022316 -62.21718535222692 44.76311672376653)"><path d="M0.26 -0.66 C-20.5 14.62, -104.28 77.68, -124.7 93.01 M-3.04 -3.48 C-22.96 10.78, -99.54 72.19, -119.71 88.43" stroke="#289998" stroke-width="4" fill="none"></path></g></g><mask></mask><g stroke-linecap="round"><g transform="translate(398.52862602027403 303.7447693564245) rotate(24.9563370022316 51.77191987193578 -23.840415722828993)"><path d="M1.61 1.25 C18.67 -5.96, 87.56 -36.96, 104.5 -44.31 M-0.96 -0.54 C15.6 -8.54, 85.63 -41.14, 102.66 -48.93" stroke="#289998" stroke-width="4" fill="none"></path></g></g><mask></mask><g stroke-linecap="round"><g transform="translate(374.3904237686379 99.72895721317855) rotate(24.9563370022316 6.0122132188514 59.16571175392119)"><path d="M-0.59 -2.31 C1.3 17.61, 10.27 100.39, 12.62 120.65 M4.28 2.6 C5.8 21.61, 9.65 96.55, 11.09 116.53" stroke="#289998" stroke-width="4" fill="none"></path></g></g><mask></mask><g stroke-linecap="round"><g transform="translate(252.78088289161371 64.19627120021255) rotate(24.9563370022316 37.16297293585029 23.58004319231887)"><path d="M0.13 1.43 C12.75 8.89, 64.34 39.94, 77.58 47.43 M-3.25 -0.27 C8.75 7.68, 61.26 36.88, 74.85 43.88" stroke="#289998" stroke-width="4" fill="none"></path></g></g><mask></mask><g transform="translate(494.24002838134766 182.5) rotate(0 77.75997161865234 22.5)"><text x="77.75997161865234" y="0" font-family="Virgil, Segoe UI Emoji" font-size="36px" fill="#1e1e1e" text-anchor="middle" style="white-space: pre;" direction="ltr" dominant-baseline="text-before-edge">Addiction</text></g><g transform="translate(392.22401428222656 140.5) rotate(353.5169263071028 16.775985717773438 22.5)"><text x="16.775985717773438" y="0" font-family="Virgil, Segoe UI Emoji" font-size="36px" fill="#289998" text-anchor="middle" style="white-space: pre;" direction="ltr" dominant-baseline="text-before-edge">??</text></g><g transform="translate(328.22401428222656 143.5) rotate(0 16.775985717773438 22.5)"><text x="16.775985717773438" y="0" font-family="Virgil, Segoe UI Emoji" font-size="36px" fill="#289998" text-anchor="middle" style="white-space: pre;" direction="ltr" dominant-baseline="text-before-edge">??</text></g><g transform="translate(336.4540328979492 288) rotate(0 75.54596710205078 22.5)"><text x="75.54596710205078" y="0" font-family="Virgil, Segoe UI Emoji" font-size="36px" fill="#1e1e1e" text-anchor="middle" style="white-space: pre;" direction="ltr" dominant-baseline="text-before-edge">Passions</text></g><g transform="translate(168.45604705810547 168) rotate(0 95.54395294189453 45)"><text x="95.54395294189453" y="0" font-family="Virgil, Segoe UI Emoji" font-size="36px" fill="#1e1e1e" text-anchor="middle" style="white-space: pre;" direction="ltr" dominant-baseline="text-before-edge">High </text><text x="95.54395294189453" y="45" font-family="Virgil, Segoe UI Emoji" font-size="36px" fill="#1e1e1e" text-anchor="middle" style="white-space: pre;" direction="ltr" dominant-baseline="text-before-edge">involvement</text></g><g stroke-linecap="round"><g transform="translate(500.45814789726455 285.4643141288251) rotate(24.9563370022316 4.601660105429687 22.8104685104218)"><path d="M0.37 -0.19 C2.14 8.22, 10.29 40.36, 12.08 48.38 M-2.87 -2.76 C-1.66 5.1, 7.64 37, 9.53 44.72" stroke="#289998" stroke-width="4" fill="none"></path></g></g><mask></mask><g stroke-linecap="round" transform="translate(10 10) rotate(0 350 177.5)"><path d="M497.54 15.72 C523.13 18.78, 545.66 29.84, 566.78 38.33 C587.91 46.81, 607.62 56, 624.31 66.62 C641 77.23, 655.39 89.56, 666.91 102 C678.43 114.43, 688.03 127.96, 693.43 141.21 C698.83 154.45, 700.18 167.9, 699.3 181.45 C698.43 195.01, 695 209.11, 688.17 222.55 C681.33 235.99, 670.98 249.92, 658.29 262.08 C645.61 274.25, 629.73 285.31, 612.06 295.53 C594.4 305.76, 574.38 315.78, 552.33 323.45 C530.27 331.13, 504.95 336.49, 479.74 341.57 C454.54 346.64, 427.63 351.69, 401.08 353.91 C374.53 356.12, 347.04 356.14, 320.46 354.87 C293.89 353.61, 267.18 350.54, 241.63 346.33 C216.08 342.12, 190.31 336.9, 167.15 329.6 C143.99 322.31, 121.84 312.23, 102.68 302.53 C83.51 292.83, 66.25 282.84, 52.18 271.41 C38.11 259.98, 26.72 246.98, 18.26 233.96 C9.8 220.94, 4.05 206.81, 1.43 193.27 C-1.19 179.73, -1.25 166.29, 2.52 152.72 C6.3 139.16, 14.03 124.77, 24.09 111.9 C34.14 99.03, 47.66 86.6, 62.87 75.49 C78.08 64.38, 95.44 54.34, 115.34 45.22 C135.24 36.1, 158.43 27.35, 182.27 20.77 C206.12 14.18, 232.27 9.09, 258.39 5.71 C284.5 2.32, 312.1 0.7, 338.98 0.47 C365.85 0.24, 391.54 1.24, 419.63 4.34 C447.73 7.43, 491.74 15.63, 507.55 19.04 C523.36 22.45, 517.13 22.26, 514.48 24.81 M515.83 22.87 C541.05 26.57, 562.79 37.69, 583.27 46.4 C603.74 55.12, 623.5 64, 638.7 75.17 C653.9 86.33, 664.8 100.36, 674.45 113.41 C684.1 126.45, 692.65 139.93, 696.61 153.43 C700.56 166.93, 700.67 181.2, 698.19 194.41 C695.72 207.62, 690.22 219.83, 681.77 232.7 C673.31 245.58, 661.51 259.95, 647.47 271.67 C633.44 283.38, 616.59 293.52, 597.55 303 C578.52 312.49, 556.31 321.12, 533.27 328.55 C510.24 335.98, 484.76 343.24, 459.34 347.58 C433.92 351.92, 407.62 353.6, 380.75 354.59 C353.88 355.58, 324.99 355.37, 298.13 353.53 C271.26 351.69, 244.76 348.94, 219.55 343.55 C194.33 338.16, 168.86 329.11, 146.84 321.2 C124.81 313.29, 105.11 306.29, 87.38 296.1 C69.66 285.91, 53.02 272.12, 40.51 260.07 C27.99 248.01, 19.2 236.65, 12.29 223.77 C5.38 210.89, -0.29 196.38, -0.97 182.8 C-1.66 169.22, 2.53 155.93, 8.16 142.3 C13.79 128.67, 21.52 113.58, 32.8 101.01 C44.07 88.45, 59.03 77.36, 75.79 66.89 C92.55 56.42, 111.95 46.65, 133.36 38.17 C154.76 29.69, 179.89 21.77, 204.23 15.98 C228.57 10.2, 253.38 6.06, 279.4 3.47 C305.41 0.87, 333.1 0.09, 360.33 0.41 C387.57 0.74, 416.67 1.72, 442.79 5.43 C468.91 9.13, 505.02 19.33, 517.05 22.62 C529.09 25.92, 517.64 22.59, 514.99 25.22" stroke="#289998" stroke-width="4" fill="none"></path></g></svg>